<svg width="247" height="216" viewBox="0 0 247 216" fill="none" xmlns="http://www.w3.org/2000/svg">
<path d="M219.495 85.7702L205.698 82.4301L204.133 82.0514L202.742 82.8617L194.349 87.7552L192.753 88.6847L192.426 90.5023L189.328 107.723L189.271 108.038L189.265 108.358L189.021 121.788L113.743 144.781L134.686 87.4774L141.431 79.6592L143.319 77.4716L141.834 74.9919L133.006 60.2482L132.56 59.5035L131.845 59.0105L97.6144 35.4178L97.232 35.1541L96.7983 34.9848L56.8121 19.3865L50.875 11.5311L50.5395 11.0861L50.0944 10.7502L39.7033 2.90334L38.8205 2.23654L37.7207 2.11845L18.8798 0.0924043L18.0125 -0.000653245L17.1857 0.275133L1.3539 5.55901L0.25138 5.92702L-0.482545 6.82886L-9.9101 18.4192L-10.5625 19.2214L-10.7444 20.2384L-15.8336 48.6582L-15.8862 48.9522L-15.8953 49.2513L-17.3868 102.4L-19.4524 105.444L-36.8684 131.116L-44.148 133.417L-44.0658 136.431L-43.5822 154.13L-43.5432 155.552L-42.6145 156.63L-29.6759 171.653L-29.1736 172.236L46.7959 211.718L47.428 211.821L70.6757 215.604L71.737 215.777L72.7428 215.394L92.1113 208.013L94.2301 207.205L94.6254 204.973L96.2901 195.582L201.803 149.21L208.526 159.543L209.101 160.426L225.611 169.007L227.149 168.56L237.923 165.436L239.568 164.958L246.633 151.362L246.541 150.216L244.915 130.008L244.865 129.39L244.63 128.816L235.074 105.445L234.884 104.98L234.585 104.577L221.767 87.2768L220.904 86.1119L219.495 85.7702ZM33.3407 8.65109L44.6437 22.9303L46.4521 25.215L44.8327 27.6366L2.85411 90.3979L-4.57008 101.496L-4.47091 88.144L-4.16598 47.0245L-4.16234 46.5961L-4.0689 46.1791L0.697176 24.9311L0.862489 24.1916L1.28724 23.5649L12.741 6.64428L14.1677 4.53639L32.3727 7.42824L33.3407 8.65109Z" fill="#2F3331"/>
</svg>
