<svg width="354" height="512" viewBox="0 0 354 512" fill="none" xmlns="http://www.w3.org/2000/svg">
<path d="M190.259 391.644L283 452.008L365.28 411.508L365.28 296.965L376.949 249.289L390.546 195.154L370.337 206.086L367.32 172.264L343.753 156.944L384.649 101.337L372.902 79.6229L329.814 102.931L336.793 78.4747L292.028 61.3267L261.006 104.207L240.811 66.874L198.281 71.1687L186.066 107.814L151.761 96.3338L109.817 119.024L112.276 171.86L57.1838 177.534L42.8032 237.51L91.9051 269.054L57.6406 264.938L80.5751 327.38L134.769 348.29L196.134 375.17L190.259 391.644Z" fill="#9EE86C"/>
<path d="M172.198 323.197L299.312 275.953L274.864 364.959L172.198 323.197Z" fill="black"/>
<path d="M71.8581 360.588L198.973 313.344L174.524 402.35L71.8581 360.588Z" fill="black"/>
</svg>
