<svg width="2778" height="2778" viewBox="0 0 2778 2778" fill="none" xmlns="http://www.w3.org/2000/svg">
<path d="M1090.37 1090.36C1301.41 879.327 1339.88 563.111 1346.9 0.609375C613.115 22.2092 22.2116 613.113 0.611328 1346.9C563.113 1339.88 879.329 1301.41 1090.37 1090.36Z" fill="black"/>
<path d="M0.611781 1346.9C0.204878 1360.72 0 1374.59 0 1388.51C0 1402.43 0.204872 1416.3 0.611764 1430.13C563.114 1437.14 879.331 1475.62 1090.38 1686.65C1301.41 1897.7 1339.88 2213.91 1346.9 2776.42C1360.72 2776.82 1374.6 2777.03 1388.51 2777.03C1402.43 2777.03 1416.3 2776.82 1430.13 2776.42C1437.14 2213.91 1475.62 1897.7 1686.65 1686.65C1897.7 1475.62 2213.91 1437.14 2776.42 1430.13C2776.82 1416.3 2777.03 1402.43 2777.03 1388.51C2777.03 1374.59 2776.82 1360.72 2776.42 1346.9C2213.91 1339.88 1897.7 1301.41 1686.65 1090.36C1475.62 879.329 1437.14 563.112 1430.13 0.611743C1416.3 0.204866 1402.43 0 1388.51 0C1374.6 0 1360.72 0.204869 1346.9 0.611755C1339.88 563.113 1301.41 879.33 1090.38 1090.36C879.33 1301.41 563.113 1339.88 0.611781 1346.9Z" fill="white"/>
<path d="M1430.13 0.609375C1437.14 563.11 1475.62 879.326 1686.65 1090.36C1897.7 1301.41 2213.91 1339.88 2776.42 1346.9C2754.81 613.112 2163.91 22.209 1430.13 0.609375Z" fill="black"/>
<path fill-rule="evenodd" clip-rule="evenodd" d="M1346.9 0V0.611755C1360.72 0.204869 1374.6 0 1388.51 0C1402.43 0 1416.3 0.204866 1430.13 0.611743V0H1388.51H1346.9ZM0 1346.9H0.611782C0.204878 1360.72 0 1374.59 0 1388.51V1346.9ZM0.611764 1430.13C0.204872 1416.3 0 1402.43 0 1388.51V1430.13H0.611764ZM1346.9 2776.42L1346.91 2777.03H1388.51H1430.13V2776.42C1416.3 2776.82 1402.43 2777.03 1388.51 2777.03C1374.6 2777.03 1360.72 2776.82 1346.9 2776.42ZM2777.03 1430.12L2776.42 1430.13C2776.82 1416.3 2777.03 1402.43 2777.03 1388.51V1430.12ZM2777.03 1346.9V1388.51C2777.03 1374.59 2776.82 1360.72 2776.42 1346.9H2777.03Z" fill="white"/>
<path d="M0.611328 1430.12C22.2113 2163.91 613.116 2754.81 1346.9 2776.41C1339.88 2213.91 1301.41 1897.69 1090.37 1686.65C879.33 1475.61 563.114 1437.14 0.611328 1430.12Z" fill="black"/>
<path d="M1686.65 1686.65C1475.62 1897.69 1437.14 2213.91 1430.13 2776.41C2163.91 2754.81 2754.81 2163.91 2776.42 1430.12C2213.91 1437.14 1897.7 1475.61 1686.65 1686.65Z" fill="black"/>
</svg>
