<svg width="32" height="34" viewBox="0 0 32 34" fill="none" xmlns="http://www.w3.org/2000/svg">
<path d="M4.26588 14.9463L4.31976 18.1728L12.7464 28.8877L19.0357 30.2655L24.9657 26.0926L26.5201 22.4598L22.1187 7.09876L17.6533 6.25114L15.6736 8.24874L15.6946 10.1685L14.2339 8.46915L9.12325 11.5282L9.1566 14.1646L6.61193 12.6102L4.26588 14.9463Z" fill="#9EE86C"/>
<path d="M7.94922 6.44531L10.9934 5.11445L13.7761 11.4795L11.4084 12.5147L7.94922 6.44531Z" fill="#9EE86C"/>
<path d="M11.8207 9.33485L13.0766 10.6962C13.3065 10.9454 13.6802 10.9978 13.9697 10.8214L16.8464 9.06844L15.8655 10.3689C15.5043 10.8478 15.8615 11.5313 16.4609 11.5083L18.8535 11.4162L15.8178 12.4213C15.349 12.5765 15.1771 13.1503 15.4832 13.5378L16.3306 14.6102L13.6694 13.885C13.3996 13.8115 13.1118 13.9028 12.9337 14.1184L11.1775 16.2453L11.2515 14.8805C11.2783 14.3874 10.8069 14.0177 10.3344 14.1612L7.27457 15.0902L9.28257 13.786C9.78561 13.4592 9.68335 12.6948 9.1121 12.5118L7.56084 12.0148L10.9219 11.7884C11.2602 11.7657 11.5354 11.5074 11.5795 11.1713L11.8207 9.33485Z" fill="#FA8153"/>
<path d="M17.6705 14.5236L7.86328 20.8906L15.4127 23.8665L17.6705 14.5236Z" fill="black"/>
<path d="M25.3892 9.51578L15.582 15.8828L23.1315 18.8586L25.3892 9.51578Z" fill="black"/>
</svg>
