<svg width="291" height="216" viewBox="0 0 291 216" fill="none" xmlns="http://www.w3.org/2000/svg">
<path d="M263.643 85.7702L249.847 82.4301L248.281 82.0514L246.891 82.8617L238.497 87.7552L236.901 88.6847L236.574 90.5023L233.476 107.723L233.419 108.038L233.413 108.358L233.169 121.788L157.891 144.781L178.834 87.4774L185.579 79.6592L187.467 77.4716L185.982 74.9919L177.155 60.2482L176.709 59.5035L175.993 59.0105L141.763 35.4178L141.38 35.1541L140.947 34.9848L100.961 19.3865L95.0234 11.5311L94.6879 11.0861L94.2429 10.7502L83.8517 2.90334L82.9689 2.23654L81.8692 2.11845L63.0282 0.0924043L62.1609 -0.000653245L61.3341 0.275133L45.5023 5.55901L44.3998 5.92702L43.6659 6.82886L34.2383 18.4192L33.5859 19.2214L33.404 20.2384L28.3148 48.6582L28.2622 48.9522L28.2531 49.2513L26.7616 102.4L24.6961 105.444L7.28007 131.116L0.000447662 133.417L0.0826012 136.431L0.566282 154.13L0.60519 155.552L1.53397 156.63L14.4725 171.653L14.9749 172.236L90.9443 211.718L91.5765 211.821L114.824 215.604L115.885 215.777L116.891 215.394L136.26 208.013L138.379 207.205L138.774 204.973L140.438 195.582L245.952 149.21L252.675 159.543L253.249 160.426L269.76 169.007L271.297 168.56L282.071 165.436L283.716 164.958L290.782 151.362L290.69 150.216L289.063 130.008L289.014 129.39L288.778 128.816L279.222 105.445L279.033 104.98L278.734 104.577L265.915 87.2768L265.053 86.1119L263.643 85.7702ZM77.4891 8.65109L88.7922 22.9303L90.6006 25.215L88.9811 27.6366L47.0026 90.3979L39.5784 101.496L39.6775 88.144L39.9825 47.0245L39.9861 46.5961L40.0795 46.1791L44.8456 24.9311L45.0109 24.1916L45.4357 23.5649L56.8894 6.64428L58.3161 4.53639L76.5211 7.42824L77.4891 8.65109Z" fill="#2F3331"/>
</svg>
