<svg width="601" height="107" viewBox="0 0 601 107" fill="none" xmlns="http://www.w3.org/2000/svg">
<path d="M113.453 37.0151C113.453 45.2098 111.428 52.1329 107.378 57.7844C103.422 63.4359 96.593 67.5333 86.8913 70.0764C88.0216 71.5835 88.8222 72.7609 89.2932 73.6086L112.182 105.398H73.7515C69.607 97.6747 63.0607 86.7484 54.1125 72.6196H33.3431V105.398H-0.000824795C0.752711 87.1252 1.12948 70.0293 1.12948 54.1109C1.12948 38.1925 0.752711 21.0966 -0.000824795 2.82337H33.3431V2.96466H62.3072C81.334 2.96466 94.615 6.0259 102.15 12.1484C109.686 18.2709 113.453 26.5597 113.453 37.0151ZM33.3431 30.0919V46.1988H52.417C60.4233 46.1988 66.4516 45.9633 70.5019 45.4923C74.6463 44.9272 77.5192 44.0795 79.1204 42.9492C80.7217 41.8188 81.5223 40.1705 81.5223 38.0041C81.5223 35.9319 80.7688 34.3306 79.2617 33.2003C77.7547 32.07 74.9289 31.2694 70.7844 30.7984C66.64 30.3274 60.5175 30.0919 52.417 30.0919H33.3431ZM208.372 2.68208H243.412V58.9147C243.223 72.7609 238.467 84.2052 229.142 93.2477C219.911 102.29 204.322 106.811 182.375 106.811C160.146 106.811 144.934 102.526 136.739 93.9541C128.545 85.2884 124.542 73.9383 124.73 59.9037V2.68208H159.769V57.6431C159.769 61.7876 160.052 65.1785 160.617 67.8158C161.276 70.359 163.254 72.7609 166.551 75.0215C169.942 77.2821 175.358 78.4124 182.799 78.4124C190.9 78.4124 196.834 77.2821 200.602 75.0215C204.369 72.6667 206.583 70.0764 207.242 67.2507C207.996 64.4249 208.372 60.7985 208.372 56.3715V2.68208ZM376.07 32.4938C361.282 32.0229 346.918 31.7403 332.977 31.6461V105.398H297.655V31.6461C283.621 31.7403 269.304 32.0229 254.704 32.4938V2.82337H376.07V32.4938ZM469.526 30.9397C458.317 30.3745 450.028 30.0449 444.659 29.9507V78.2711C450.122 78.177 458.411 77.8473 469.526 77.2821V105.398H387.437V77.2821C398.269 77.8473 406.511 78.177 412.163 78.2711V29.9507C406.511 30.0449 398.269 30.3745 387.437 30.9397V2.82337H469.526V30.9397ZM480.847 93.2477C484.05 88.4439 486.687 83.9698 488.76 79.8253C490.926 75.6809 492.998 70.8771 494.976 65.4139C501.664 69.2758 509.435 72.29 518.289 74.4564C527.143 76.6228 535.385 77.706 543.014 77.706C550.832 77.706 556.342 77.0467 559.545 75.728C562.747 74.3151 564.349 72.808 564.349 71.2067C564.349 65.461 555.589 62.5882 538.069 62.5882C518.854 62.5882 504.913 60.6102 496.248 56.6541C487.582 52.6038 483.249 46.1046 483.249 37.1563C483.249 24.4404 488.524 15.0683 499.074 9.04004C509.623 3.01175 523.328 -0.00239082 540.188 -0.00239082C549.984 -0.00239082 560.016 1.2692 570.283 3.81239C580.644 6.26138 589.969 9.65229 598.258 13.9851C595.526 20.2018 592.653 27.7842 589.639 36.7325C589.074 38.6163 588.603 40.0292 588.226 40.9711C583.422 37.1093 576.17 33.9067 566.468 31.3635C556.766 28.7262 548.195 27.4075 540.753 27.4075C531.805 27.4075 525.777 28.0197 522.669 29.2442C519.56 30.3745 518.006 32.07 518.006 34.3306C518.006 36.5912 520.125 38.4279 524.364 39.8408C528.697 41.1595 534.914 41.8189 543.014 41.8189C562.983 41.8189 577.488 44.1266 586.531 48.742C595.573 53.2632 600.094 60.2334 600.094 69.6526C600.094 82.8395 595.291 92.3528 585.683 98.1928C576.075 103.938 561.523 106.811 542.025 106.811C531.57 106.811 520.926 105.681 510.094 103.42C499.262 101.066 489.513 97.6747 480.847 93.2477Z" fill="#2F3331"/>
</svg>
