<svg width="447" height="446" viewBox="0 0 447 446" fill="none" xmlns="http://www.w3.org/2000/svg">
<path d="M223.059 0L229.221 174.718L278.641 7.02167L241.159 177.783L330.731 27.6455L251.96 183.721L376.055 60.5755L260.945 192.158L411.766 103.743L267.549 202.564L435.62 154.435L271.358 214.286L446.118 209.466L272.132 226.587L442.6 265.38L269.822 238.694L425.287 318.662L264.574 249.847L395.268 365.964L256.718 259.343L354.429 404.315L246.746 266.588L305.334 431.305L235.287 271.125L251.071 445.238L223.059 272.67L195.047 445.238L210.831 271.125L140.783 431.305L199.371 266.588L91.6886 404.315L189.399 259.343L50.8489 365.964L181.543 249.847L20.8297 318.662L176.295 238.694L3.5174 265.38L173.986 226.587L-0.00038147 209.466L174.76 214.286L10.4975 154.435L178.568 202.564L34.3513 103.743L185.172 192.158L70.0623 60.5755L194.157 183.721L115.387 27.6455L204.958 177.783L167.476 7.02167L216.896 174.718L223.059 0Z" fill="#F8E46E"/>
</svg>
