<svg width="3300" height="3300" viewBox="0 0 3300 3300" fill="none" xmlns="http://www.w3.org/2000/svg">
<g clip-path="url(#clip0_119_177)">
<path d="M1649.89 3299.78C2561.1 3299.78 3299.78 2561.1 3299.78 1649.89C3299.78 738.681 2561.1 0 1649.89 0C738.681 0 0 738.681 0 1649.89C0 2561.1 738.681 3299.78 1649.89 3299.78Z" fill="url(#paint0_linear_119_177)"/>
<path fill-rule="evenodd" clip-rule="evenodd" d="M746.836 1632.47C1227.81 1422.92 1548.54 1284.77 1709.02 1218.02C2167.21 1027.44 2262.42 994.339 2324.47 993.246C2338.12 993.006 2368.64 996.388 2388.4 1012.43C2405.1 1025.97 2409.69 1044.27 2411.89 1057.11C2414.08 1069.95 2416.82 1099.2 2414.64 1122.06C2389.82 1382.95 2282.38 2016.05 2227.72 2308.25C2204.59 2431.89 2159.05 2473.34 2114.97 2477.4C2019.15 2486.22 1946.4 2414.08 1853.6 2353.25C1708.39 2258.06 1626.35 2198.81 1485.4 2105.92C1322.5 1998.57 1428.1 1939.58 1520.93 1843.15C1545.23 1817.92 1967.38 1433.94 1975.55 1399.11C1976.57 1394.75 1977.52 1378.51 1967.87 1369.94C1958.23 1361.36 1943.99 1364.3 1933.71 1366.63C1919.15 1369.93 1687.17 1523.26 1237.78 1826.61C1171.93 1871.83 1112.29 1893.86 1058.86 1892.71C999.947 1891.43 886.629 1859.4 802.388 1832.01C699.064 1798.43 616.943 1780.67 624.094 1723.63C627.819 1693.92 668.733 1663.53 746.836 1632.47Z" fill="white"/>
</g>
<defs>
<linearGradient id="paint0_linear_119_177" x1="1649.89" y1="0" x2="1649.89" y2="3275.31" gradientUnits="userSpaceOnUse">
<stop stop-color="#2AABEE"/>
<stop offset="1" stop-color="#229ED9"/>
</linearGradient>
<clipPath id="clip0_119_177">
<rect width="3299.78" height="3299.78" fill="white"/>
</clipPath>
</defs>
</svg>
