<svg width="9299" height="10647" viewBox="0 0 9299 10647" fill="none" xmlns="http://www.w3.org/2000/svg">
<g clip-path="url(#clip0_119_174)">
<path d="M7909.26 2134.03C7334.8 1760.16 6920.54 1161.69 6791.1 464.407C6763.28 313.789 6747.77 158.63 6747.77 0H4914.74L4911.8 7335.45C4881.04 8156.91 4203.89 8816.26 3374.02 8816.26C3115.94 8816.26 2873.11 8751.9 2659.15 8639.47C2168.67 8381.77 1833.03 7868.49 1833.03 7277.76C1833.03 6429.33 2524.36 5739 3373.75 5739C3532.34 5739 3684.52 5765.17 3828.4 5810.03V3941.45C3679.44 3921.16 3528.07 3908.61 3373.75 3908.61C1513.44 3908.61 0 5419.87 0 7277.76C0 8417.55 570.182 9426.22 1440.43 10036.2C1988.41 10420.5 2655.14 10646.7 3374.02 10646.7C5234.33 10646.7 6747.77 9135.39 6747.77 7277.76V3557.96C7466.65 4073.11 8347.6 4376.75 9298.08 4376.75V2546.36C8786.2 2546.36 8309.35 2394.41 7909.26 2134.03Z" fill="black"/>
</g>
<defs>
<clipPath id="clip0_119_174">
<rect width="9298.08" height="10646.7" fill="white"/>
</clipPath>
</defs>
</svg>
